# Blender 5.0.1
# www.blender.org
mtllib char.mtl
o Plane.001
v -0.000003 0.369301 0.041870
v -0.000003 0.381214 -0.057889
v -0.000003 0.259219 0.039341
v -0.000003 0.263977 -0.040492
v -0.000003 0.195543 0.036254
v -0.002481 0.208533 -0.033276
v -0.000003 0.313601 0.055140
v -0.000003 0.333640 -0.062291
v -0.000003 0.416370 0.017277
v -0.000003 0.439067 -0.030959
v -0.000003 0.421175 0.032229
v -0.000003 0.488515 0.048750
v -0.000003 0.461171 -0.034087
v -0.000003 0.506964 -0.017920
v -0.000003 0.462147 0.052094
v -0.000003 0.508058 0.020479
v -0.000003 0.489112 -0.029090
v -0.000003 0.474823 -0.033290
v -0.000003 0.439214 0.046408
v -0.000003 0.157562 -0.002521
v -0.024542 0.439795 -0.005825
v -0.108196 0.366171 0.029725
v -0.014144 0.151735 -0.025414
v -0.018158 0.442684 -0.024180
v -0.102116 0.370136 -0.035384
v -0.050216 0.254754 0.028078
v -0.053378 0.273584 -0.026539
v -0.017131 0.426903 0.011262
v -0.055339 0.381250 0.032273
v -0.060548 0.171523 0.012643
v -0.049840 0.391652 -0.051040
v -0.033254 0.259951 -0.037142
v -0.031538 0.259217 0.042450
v -0.040719 0.213607 0.012135
v -0.039811 0.214366 -0.018793
v -0.033434 0.203021 0.030346
v -0.030846 0.210068 -0.029892
v -0.115114 0.371664 -0.002431
v -0.058140 0.278029 -0.000627
v -0.065493 0.404364 -0.003166
v -0.039245 0.216946 -0.005686
v -0.072903 0.306960 0.030876
v -0.073722 0.325138 -0.045982
v -0.035439 0.336222 -0.058414
v -0.040061 0.310543 0.049408
v -0.080837 0.308959 -0.004892
v -0.016438 0.429334 0.022109
v -0.021913 0.487576 0.040707
v -0.021671 0.453204 -0.024043
v -0.020700 0.503654 -0.015048
v -0.030636 0.444852 0.002638
v -0.026709 0.501505 0.013734
v -0.021568 0.486401 -0.017179
v -0.023041 0.463922 0.039218
v -0.033976 0.476117 0.012330
v -0.022597 0.471965 -0.019189
v -0.021601 0.444674 0.033610
v -0.033021 0.457555 0.009122
v -0.053361 0.161915 -0.032644
v -0.044768 0.161696 0.031796
v -0.036036 0.161063 -0.035884
v -0.062601 0.171768 -0.013011
v -0.024629 0.147625 0.029872
v -0.014797 0.139371 0.005780
v -0.031588 0.104884 -0.006008
v -0.064904 0.120841 0.013824
v -0.056621 0.110707 -0.015965
v -0.054103 0.117594 0.023921
v -0.042389 0.106497 -0.014551
v -0.065947 0.121552 -0.000276
v -0.039871 0.113736 0.022529
v -0.030545 0.111444 0.011980
v -0.034171 0.085197 -0.010580
v -0.067811 0.096926 0.011203
v -0.059358 0.091972 -0.021633
v -0.057254 0.091997 0.022389
v -0.045221 0.088685 -0.021649
v -0.068631 0.100789 -0.004163
v -0.043124 0.088744 0.020922
v -0.033820 0.089223 0.008909
v -0.045276 0.024310 -0.011934
v -0.065588 0.024288 -0.001338
v -0.060392 0.024355 -0.017324
v -0.059106 0.024252 0.004668
v -0.051758 0.024347 -0.017940
v -0.066121 0.024331 -0.010448
v -0.050472 0.024243 0.004052
v -0.044744 0.024267 -0.002824
v -0.041717 0.102611 0.021466
v -0.055734 0.105838 0.022779
v -0.056781 0.098107 0.022332
v -0.042875 0.094744 0.020937
v -0.038003 0.094834 0.015221
v -0.036927 0.102631 0.015947
v -0.061847 0.100173 0.017130
v -0.060283 0.107962 0.017569
v -0.044674 0.024377 -0.018433
v -0.041669 0.001576 -0.025262
v -0.046553 0.016574 0.040104
v -0.046553 0.004321 0.041636
v -0.069915 0.004604 0.035149
v -0.069915 0.016857 0.033617
v -0.068513 0.001576 -0.025262
v -0.066946 0.024495 -0.018761
v -0.041326 0.024153 0.008920
v -0.040233 0.001761 0.008233
v -0.071723 0.001576 0.009947
v -0.069311 0.024259 0.010587
v -0.056696 0.001576 -0.025262
v -0.056427 0.025339 -0.021756
v -0.056696 0.001576 0.042083
v -0.056696 0.013829 0.040551
v -0.056606 0.025683 0.010074
v -0.056696 0.001576 0.009947
v -0.110237 0.340646 0.027627
v -0.094576 0.328339 0.026065
v -0.117716 0.355384 -0.001050
v -0.085636 0.316354 -0.006906
v -0.094417 0.338528 -0.043021
v -0.118496 0.353335 -0.027328
v -0.118615 0.278407 0.017104
v -0.099965 0.275787 0.012703
v -0.131597 0.280037 0.001952
v -0.094294 0.275698 -0.006836
v -0.103379 0.281753 -0.022804
v -0.124332 0.278820 -0.015029
v -0.125899 0.244450 0.022405
v -0.103143 0.241084 0.016804
v -0.141794 0.246495 0.003864
v -0.094992 0.239561 -0.007286
v -0.112176 0.241807 -0.025876
v -0.134932 0.245173 -0.020276
v -0.127236 0.174547 0.010139
v -0.115952 0.175363 0.007797
v -0.134730 0.174200 0.000741
v -0.112162 0.175832 -0.003944
v -0.119656 0.175485 -0.013341
v -0.130940 0.174669 -0.010999
v -0.099387 0.314294 -0.034007
v -0.120961 0.313408 -0.016512
v -0.124811 0.319460 0.000795
v -0.114870 0.309908 0.022674
v -0.092429 0.295844 -0.005857
v -0.098268 0.300618 0.019955
v -0.042044 0.024060 -0.006290
v -0.070118 0.001576 -0.006120
v -0.040951 0.001668 -0.006978
v -0.067706 0.024259 -0.005480
v -0.056696 0.001576 -0.006120
v -0.056651 0.026459 -0.006057
v -0.115543 0.140724 0.010072
v -0.116761 0.159672 0.010076
v -0.116278 0.140308 -0.011937
v -0.117276 0.163001 -0.012145
v -0.131665 0.140724 0.010072
v -0.130416 0.159425 0.010404
v -0.132401 0.140308 -0.011937
v -0.130931 0.162754 -0.011817
v -0.113630 0.152672 0.012043
v -0.115562 0.153077 -0.012550
v -0.133491 0.153077 -0.012550
v -0.133208 0.152672 0.011351
v -0.112454 0.137133 -0.001828
v -0.111840 0.161460 -0.001199
v -0.133157 0.138966 -0.001828
v -0.135852 0.160966 -0.000542
v -0.139341 0.152731 -0.001890
v -0.111361 0.152731 -0.001198
v -0.000003 0.392835 0.029573
v -0.000003 0.408814 -0.042734
v -0.036235 0.404077 0.021768
v -0.033562 0.415701 -0.035858
v -0.044998 0.422075 -0.004190
v 0.002476 0.208533 -0.033276
v 0.024536 0.439795 -0.005825
v 0.108190 0.366171 0.029725
v 0.014138 0.151735 -0.025414
v 0.018152 0.442684 -0.024180
v 0.102111 0.370136 -0.035384
v 0.050210 0.254754 0.028078
v 0.053372 0.273584 -0.026539
v 0.017125 0.426903 0.011262
v 0.055334 0.381250 0.032273
v 0.060543 0.171523 0.012643
v 0.049834 0.391652 -0.051040
v 0.033248 0.259951 -0.037142
v 0.031532 0.259217 0.042450
v 0.040713 0.213607 0.012135
v 0.039805 0.214366 -0.018793
v 0.033428 0.203021 0.030346
v 0.030840 0.210068 -0.029892
v 0.115109 0.371664 -0.002431
v 0.058134 0.278029 -0.000627
v 0.065487 0.404364 -0.003166
v 0.039240 0.216946 -0.005686
v 0.072897 0.306960 0.030876
v 0.073716 0.325138 -0.045982
v 0.035433 0.336222 -0.058414
v 0.040055 0.310543 0.049408
v 0.080831 0.308959 -0.004892
v 0.016433 0.429334 0.022109
v 0.021908 0.487576 0.040707
v 0.021665 0.453204 -0.024043
v 0.020694 0.503654 -0.015048
v 0.030630 0.444852 0.002638
v 0.026703 0.501505 0.013734
v 0.021563 0.486401 -0.017179
v 0.023035 0.463922 0.039218
v 0.033970 0.476117 0.012330
v 0.022591 0.471965 -0.019189
v 0.021595 0.444674 0.033610
v 0.033015 0.457555 0.009122
v 0.053356 0.161915 -0.032644
v 0.044763 0.161696 0.031796
v 0.036030 0.161063 -0.035884
v 0.062595 0.171768 -0.013011
v 0.024624 0.147625 0.029872
v 0.014791 0.139371 0.005780
v 0.031582 0.104884 -0.006008
v 0.064898 0.120841 0.013824
v 0.056616 0.110707 -0.015965
v 0.054097 0.117594 0.023921
v 0.042384 0.106497 -0.014551
v 0.065942 0.121552 -0.000276
v 0.039865 0.113736 0.022529
v 0.030539 0.111444 0.011980
v 0.034165 0.085197 -0.010580
v 0.067805 0.096926 0.011203
v 0.059352 0.091972 -0.021633
v 0.057248 0.091997 0.022389
v 0.045216 0.088685 -0.021649
v 0.068625 0.100789 -0.004163
v 0.043119 0.088744 0.020922
v 0.033814 0.089223 0.008909
v 0.045271 0.024310 -0.011934
v 0.065582 0.024288 -0.001338
v 0.060387 0.024355 -0.017324
v 0.059100 0.024252 0.004668
v 0.051753 0.024347 -0.017940
v 0.066115 0.024331 -0.010448
v 0.050466 0.024243 0.004052
v 0.044738 0.024267 -0.002824
v 0.041711 0.102611 0.021466
v 0.055729 0.105838 0.022779
v 0.056775 0.098107 0.022332
v 0.042869 0.094744 0.020937
v 0.037998 0.094834 0.015221
v 0.036921 0.102631 0.015947
v 0.061841 0.100173 0.017130
v 0.060277 0.107962 0.017569
v 0.044668 0.024377 -0.018433
v 0.041664 0.001576 -0.025262
v 0.046547 0.016574 0.040104
v 0.046547 0.004321 0.041636
v 0.069909 0.004604 0.035149
v 0.069909 0.016857 0.033617
v 0.068507 0.001576 -0.025262
v 0.066940 0.024495 -0.018761
v 0.041320 0.024153 0.008920
v 0.040227 0.001761 0.008233
v 0.071718 0.001576 0.009947
v 0.069305 0.024259 0.010587
v 0.056691 0.001576 -0.025262
v 0.056422 0.025339 -0.021756
v 0.056691 0.001576 0.042083
v 0.056691 0.013829 0.040551
v 0.056600 0.025683 0.010074
v 0.056691 0.001576 0.009947
v 0.110231 0.340646 0.027627
v 0.094570 0.328339 0.026065
v 0.117710 0.355384 -0.001050
v 0.085630 0.316354 -0.006906
v 0.094411 0.338528 -0.043021
v 0.118490 0.353335 -0.027328
v 0.118609 0.278407 0.017104
v 0.099959 0.275787 0.012703
v 0.131591 0.280037 0.001952
v 0.094288 0.275698 -0.006836
v 0.103373 0.281753 -0.022804
v 0.124327 0.278820 -0.015029
v 0.125893 0.244450 0.022405
v 0.103138 0.241084 0.016804
v 0.141788 0.246495 0.003864
v 0.094986 0.239561 -0.007286
v 0.112171 0.241807 -0.025876
v 0.134926 0.245173 -0.020276
v 0.127231 0.174547 0.010139
v 0.115947 0.175363 0.007797
v 0.134724 0.174200 0.000741
v 0.112157 0.175832 -0.003944
v 0.119650 0.175485 -0.013341
v 0.130934 0.174669 -0.010999
v 0.099381 0.314294 -0.034007
v 0.120956 0.313408 -0.016512
v 0.124806 0.319460 0.000795
v 0.114864 0.309908 0.022674
v 0.092423 0.295844 -0.005857
v 0.098262 0.300618 0.019955
v 0.042038 0.024060 -0.006290
v 0.070112 0.001576 -0.006120
v 0.040945 0.001668 -0.006978
v 0.067700 0.024259 -0.005480
v 0.056691 0.001576 -0.006120
v 0.056645 0.026459 -0.006057
v 0.115537 0.140724 0.010072
v 0.116755 0.159672 0.010076
v 0.116272 0.140308 -0.011937
v 0.117270 0.163001 -0.012145
v 0.131660 0.140724 0.010072
v 0.130410 0.159425 0.010404
v 0.132395 0.140308 -0.011937
v 0.130925 0.162754 -0.011817
v 0.113624 0.152672 0.012043
v 0.115556 0.153077 -0.012550
v 0.133485 0.153077 -0.012550
v 0.133202 0.152672 0.011351
v 0.112449 0.137133 -0.001828
v 0.111834 0.161460 -0.001199
v 0.133152 0.138966 -0.001828
v 0.135846 0.160966 -0.000542
v 0.139335 0.152731 -0.001890
v 0.111355 0.152731 -0.001198
v 0.036229 0.404077 0.021768
v 0.033556 0.415701 -0.035858
v 0.044993 0.422075 -0.004190
v -0.040529 0.310383 0.051318
v -0.055982 0.382278 0.033958
v -0.109662 0.366869 0.031379
v -0.074463 0.306114 0.032361
v -0.035878 0.335956 -0.060297
v -0.074977 0.324316 -0.047552
v -0.103449 0.371178 -0.036814
v -0.050643 0.392775 -0.052711
v -0.082338 0.307765 -0.005228
v -0.086777 0.314984 -0.007561
v -0.095640 0.337755 -0.044782
v -0.041077 0.216446 -0.005756
v -0.059886 0.277234 -0.000797
v -0.055007 0.272817 -0.027664
v -0.041596 0.213864 -0.019650
v -0.031648 0.209720 -0.031689
v -0.033987 0.259488 -0.038925
v -0.034401 0.202615 0.032157
v -0.032426 0.258782 0.044233
v -0.051968 0.254047 0.028989
v -0.042558 0.213089 0.012728
v -0.000003 0.195306 0.038143
v -0.000003 0.258912 0.041220
v -0.002579 0.208281 -0.035159
v -0.000003 0.263579 -0.042364
v -0.116786 0.373057 -0.002187
v -0.066698 0.406104 -0.002946
v -0.000003 0.333465 -0.064229
v -0.000003 0.381776 -0.059760
v -0.000003 0.313681 0.057095
v -0.000003 0.369917 0.043696
v -0.036797 0.405217 0.023287
v -0.000003 0.393708 0.031264
v -0.034304 0.417041 -0.037242
v -0.046390 0.423725 -0.003932
v -0.000003 0.409792 -0.044364
v -0.111799 0.340544 0.029199
v -0.095043 0.327996 0.027874
v -0.119620 0.355949 -0.000994
v -0.119954 0.354082 -0.028764
v 0.040523 0.310383 0.051318
v 0.074419 0.305994 0.032355
v 0.109656 0.366869 0.031379
v 0.055976 0.382278 0.033958
v 0.035872 0.335956 -0.060297
v 0.050638 0.392775 -0.052711
v 0.103443 0.371178 -0.036814
v 0.074971 0.324316 -0.047552
v 0.082329 0.307737 -0.005158
v 0.095635 0.337755 -0.044782
v 0.086977 0.314966 -0.007166
v 0.041072 0.216446 -0.005756
v 0.041590 0.213864 -0.019650
v 0.055001 0.272817 -0.027664
v 0.059880 0.277234 -0.000797
v 0.031642 0.209720 -0.031689
v 0.033981 0.259488 -0.038925
v 0.034395 0.202615 0.032157
v 0.042552 0.213089 0.012728
v 0.051962 0.254047 0.028989
v 0.032420 0.258782 0.044233
v 0.002573 0.208281 -0.035159
v 0.116781 0.373057 -0.002187
v 0.066692 0.406104 -0.002946
v 0.036791 0.405217 0.023287
v 0.034298 0.417041 -0.037242
v 0.046384 0.423725 -0.003932
v 0.095928 0.327180 0.027489
v 0.111794 0.340544 0.029199
v 0.119614 0.355949 -0.000994
v 0.119948 0.354082 -0.028764
vn 0.2399 -0.0496 -0.9695
vn 0.4624 0.0911 -0.8820
vn 0.4177 -0.1227 -0.9002
vn 0.2428 -0.2643 -0.9334
vn 0.1824 -0.0321 0.9827
vn 0.2446 -0.2405 0.9393
vn 0.5080 -0.1030 0.8552
vn 0.4804 0.1154 0.8694
vn 0.6625 0.7273 0.1793
vn 0.5422 0.6402 0.5442
vn 0.6007 0.7211 0.3452
vn 0.6933 0.5668 0.4450
vn 0.9866 0.1579 -0.0419
vn 0.9100 0.2350 0.3417
vn 0.8182 0.5360 0.2082
vn 0.9513 0.2950 -0.0896
vn 0.5135 0.0776 0.8546
vn 0.4995 0.3858 0.7756
vn 0.7386 0.1344 0.6606
vn 0.7694 0.1589 0.6187
vn 0.6301 0.0895 -0.7713
vn 0.7724 0.0085 -0.6351
vn 0.7727 0.1934 -0.6047
vn 0.5693 0.2541 -0.7819
vn 0.0843 0.0938 -0.9920
vn 0.2014 0.0822 -0.9760
vn 0.2287 0.0898 -0.9693
vn 0.0881 0.1156 -0.9894
vn 0.1431 0.1087 0.9837
vn 0.0547 0.0970 0.9938
vn 0.2286 0.1558 0.9610
vn 0.2345 0.1190 0.9648
vn 0.8076 -0.5730 0.1394
vn 0.6729 -0.4575 0.5813
vn 0.3619 -0.7110 0.6030
vn 0.5350 -0.8327 0.1428
vn 0.0723 -0.0337 0.9968
vn 0.1095 -0.0978 0.9892
vn 0.2422 -0.2004 0.9493
vn 0.2339 0.0387 0.9715
vn 0.1510 -0.1593 -0.9756
vn 0.2327 -0.1166 -0.9655
vn 0.2198 -0.3256 -0.9196
vn 0.1352 -0.2162 -0.9669
vn 0.0615 -0.5828 -0.8103
vn 0.0526 -0.4581 -0.8873
vn 0.1963 -0.4250 -0.8837
vn 0.3865 -0.4019 0.8301
vn 0.5373 -0.2415 0.8081
vn 0.2094 -0.4263 0.8800
vn 0.5160 -0.4081 0.7531
vn -0.5129 -0.2383 0.8247
vn 0.4798 -0.5959 0.6440
vn 0.6279 -0.6808 0.3772
vn 0.7521 -0.5432 0.3731
vn 0.7509 -0.4165 0.5126
vn 0.4914 -0.6461 -0.5840
vn 0.5299 -0.5299 -0.6621
vn 0.6158 -0.4981 -0.6105
vn 0.5592 -0.7141 -0.4211
vn 0.0342 -0.5142 0.8570
vn 0.3351 -0.5397 0.7723
vn 0.5888 -0.4508 -0.6709
vn 0.7438 -0.6016 -0.2912
vn 0.4385 -0.8542 -0.2793
vn 0.3083 -0.6194 -0.7220
vn 0.9863 0.1652 0.0029
vn 0.9738 -0.0292 0.2254
vn 0.9694 0.1134 0.2178
vn 0.9599 0.2748 0.0561
vn 0.7370 0.6280 -0.2499
vn 0.7459 0.6582 0.1023
vn 0.9439 0.2881 0.1614
vn 0.7433 0.6635 -0.0855
vn 0.8793 0.4515 -0.1514
vn 0.9461 0.3193 0.0543
vn 0.8661 0.4753 0.1545
vn 0.8690 0.4519 -0.2017
vn 0.0525 0.2424 -0.9688
vn 0.1970 0.2049 -0.9588
vn 0.1065 0.2063 -0.9727
vn 0.0133 0.1601 -0.9870
vn 0.1571 0.3146 0.9361
vn 0.1321 0.2080 0.9692
vn 0.2851 0.2797 0.9168
vn 0.3147 0.3628 0.8771
vn 0.9639 0.2472 0.0989
vn 0.7828 0.4958 0.3760
vn 0.7883 0.4408 0.4294
vn 0.8654 0.4994 0.0421
vn 0.2509 0.4106 0.8766
vn 0.1751 0.2493 0.9525
vn 0.4691 0.3887 0.7930
vn 0.5323 0.1783 0.8276
vn 0.4169 0.2278 -0.8800
vn 0.6011 0.2018 -0.7733
vn 0.5443 0.2790 -0.7911
vn 0.3540 0.1525 -0.9227
vn -0.3533 0.3391 -0.8719
vn -0.9303 0.1392 0.3393
vn -0.4209 0.0431 0.9061
vn -0.9311 -0.1378 0.3379
vn -0.2814 0.8097 0.5150
vn -0.2035 0.9791 -0.0028
vn -0.9367 0.0567 -0.3456
vn -0.9455 0.2016 -0.2557
vn -0.5159 0.1986 -0.8333
vn 0.5608 0.7918 -0.2418
vn 0.5608 0.7919 -0.2418
vn 0.8009 0.5987 -0.0081
vn 0.4129 0.1035 0.9049
vn 0.8668 0.3265 0.3769
vn -0.5109 0.1500 -0.8464
vn -0.9453 0.0180 -0.3258
vn -0.8804 -0.4002 0.2545
vn -0.5659 -0.5559 0.6088
vn 0.7440 -0.4933 0.4507
vn 0.8194 -0.4926 0.2933
vn 0.6767 -0.3307 0.6578
vn 0.7501 -0.6154 0.2421
vn 0.7699 -0.5036 -0.3920
vn 0.4681 -0.4504 -0.7603
vn 0.6598 -0.4582 -0.5956
vn 0.6013 -0.2402 -0.7621
vn 0.8973 -0.4376 0.0576
vn 0.8441 -0.5349 -0.0362
vn 0.7495 -0.6346 0.1885
vn 0.7410 -0.5876 -0.3250
vn 0.8269 -0.3809 -0.4138
vn 0.7727 -0.4477 0.4501
vn 0.0828 0.0217 -0.9963
vn -0.0842 0.2760 -0.9575
vn 0.3427 0.2335 -0.9100
vn -0.1314 0.0384 0.9906
vn 0.0859 0.2174 0.9723
vn -0.2475 0.2160 0.9445
vn 0.0045 0.1902 -0.9817
vn -0.1960 0.4228 -0.8848
vn 0.3109 0.2945 -0.9037
vn 0.7520 -0.3869 0.5337
vn 0.8029 -0.3133 -0.5072
vn 0.4975 -0.2620 -0.8270
vn 0.7026 -0.2443 -0.6684
vn 0.5752 -0.0544 -0.8162
vn 0.8456 -0.0131 0.5337
vn 0.9203 -0.0574 0.3870
vn 0.7206 0.1598 0.6747
vn 0.8624 -0.2340 0.4488
vn 0.9052 -0.4213 -0.0569
vn -0.1023 0.5111 0.8534
vn -0.4575 0.5590 0.6915
vn -0.3478 0.4186 0.8389
vn 0.9967 -0.0762 0.0278
vn 0.9785 -0.1932 -0.0718
vn 0.9320 -0.3233 0.1638
vn 0.8947 -0.3615 -0.2623
vn 0.1010 0.1837 0.9778
vn 0.2380 0.2843 0.9287
vn -0.1235 0.2102 0.9698
vn 0.2522 0.1350 0.9582
vn 0.6966 -0.3436 0.6299
vn 0.7852 -0.3623 0.5022
vn 0.5769 -0.1778 0.7973
vn 0.7389 -0.5209 0.4274
vn 0.8253 -0.2371 -0.5125
vn 0.4948 -0.1734 -0.8515
vn 0.7042 -0.1897 -0.6842
vn 0.5701 -0.0586 -0.8195
vn -0.5129 0.0208 0.8582
vn -0.7494 0.0943 0.6553
vn -0.6788 -0.1271 0.7233
vn 0.7136 -0.1888 0.6746
vn 0.9933 -0.1124 0.0276
vn 0.9717 -0.2178 -0.0909
vn 0.9132 -0.3950 0.1006
vn 0.8875 -0.2981 -0.3515
vn -0.1425 -0.4376 0.8878
vn 0.0175 -0.3388 0.9407
vn -0.3278 -0.4127 0.8498
vn 0.0181 -0.5067 0.8619
vn -0.0684 0.1060 -0.9920
vn -0.2838 0.3356 -0.8982
vn 0.1919 0.2982 -0.9350
vn 0.9903 -0.1389 0.0024
vn -0.0516 0.2561 -0.9653
vn -0.2959 0.4387 -0.8485
vn 0.2000 0.4475 -0.8716
vn 0.9851 -0.1718 -0.0065
vn 0.7979 -0.1082 0.5930
vn 0.8979 -0.0788 0.4331
vn 0.6429 -0.0668 0.7630
vn 0.8346 -0.2935 0.4661
vn 0.8487 -0.1067 -0.5180
vn 0.5597 -0.1077 -0.8216
vn 0.7433 -0.0425 -0.6676
vn 0.5737 0.1495 -0.8053
vn -0.4987 0.2394 0.8331
vn -0.7679 0.2907 0.5708
vn -0.6821 0.1097 0.7230
vn 0.7626 -0.2403 0.6005
vn 0.9980 0.0260 0.0577
vn 0.9965 -0.0701 -0.0464
vn 0.9600 -0.2097 0.1858
vn 0.9335 -0.1749 -0.3131
vn 0.0366 -0.0845 0.9957
vn 0.1813 0.0616 0.9815
vn -0.1450 -0.1096 0.9834
vn 0.1846 -0.1444 0.9722
vn 0.9883 0.1076 -0.1080
vn 0.8134 -0.3128 -0.4904
vn 0.4825 -0.2751 -0.8316
vn 0.6773 -0.2697 -0.6845
vn 0.8731 0.1150 -0.4739
vn -0.0791 0.0734 -0.9942
vn -0.2933 0.3052 -0.9060
vn 0.1754 0.2764 -0.9449
vn -0.1009 0.0027 -0.9949
vn -0.3251 0.2291 -0.9175
vn 0.1527 0.2103 -0.9656
vn 0.7800 -0.0743 0.6213
vn 0.8305 -0.2724 -0.4859
vn 0.4857 -0.2402 -0.8405
vn 0.6332 -0.2262 -0.7402
vn 0.8829 0.0913 -0.4606
vn 0.7216 -0.2013 0.6624
vn 0.7494 -0.1584 0.6429
vn 0.7912 0.0018 -0.6116
vn 0.6985 -0.2091 -0.6844
vn 0.5164 0.0389 -0.8554
vn 0.7486 -0.3083 -0.5870
vn -0.1378 0.2128 -0.9673
vn -0.9971 0.0696 0.0312
vn 0.0101 0.1241 0.9922
vn -0.1200 -0.9912 0.0561
vn -0.0268 0.9541 0.2984
vn 0.1311 0.9912 0.0184
vn -0.0000 -1.0000 -0.0000
vn -0.9892 0.1080 -0.0988
vn 0.9833 0.0354 0.1785
vn 0.0088 -1.0000 0.0028
vn -0.1500 0.9885 0.0166
vn -0.0256 0.9407 0.3382
vn 0.1133 -0.9923 0.0497
vn -0.4415 0.1113 0.8903
vn 0.1279 0.2220 -0.9666
vn 0.3206 -0.2044 -0.9249
vn 0.1006 0.2356 -0.9666
vn 0.2459 0.1806 -0.9523
vn 0.9735 -0.1362 0.1836
vn 0.8395 -0.5344 -0.0980
vn 0.7998 -0.3063 -0.5163
vn 0.9599 -0.1021 -0.2611
vn 0.5831 -0.6100 0.5367
vn 0.6595 -0.7507 0.0391
vn 0.8490 -0.5284 0.0027
vn 0.8729 -0.4419 0.2068
vn 0.1038 -0.0256 0.9943
vn 0.2173 -0.5112 0.8316
vn 0.2945 -0.1560 0.9428
vn 0.5007 0.1074 0.8589
vn 0.8344 -0.0901 -0.5437
vn 0.9885 0.0026 -0.1509
vn 0.7379 -0.5448 -0.3983
vn 0.8719 -0.2924 0.3928
vn 0.9699 -0.1841 0.1595
vn 0.9372 -0.1169 0.3286
vn -0.8878 0.1808 0.4233
vn -0.8164 0.3354 0.4701
vn -0.8988 0.3311 0.2874
vn -0.1169 0.2311 -0.9659
vn -0.9772 0.0535 0.2053
vn -0.8415 0.5320 -0.0936
vn -0.9587 0.1229 -0.2565
vn 0.7202 -0.2554 -0.6451
vn 0.9534 -0.1531 -0.2599
vn 0.5972 -0.6591 -0.4570
vn 0.8089 -0.4457 0.3833
vn 0.9209 -0.3625 0.1434
vn 0.8982 -0.2942 0.3267
vn -0.7860 0.0697 0.6142
vn -0.7248 0.2383 0.6464
vn -0.8629 0.1877 0.4691
vn -0.2466 -0.0945 -0.9645
vn -0.9853 -0.0878 0.1465
vn -0.8735 0.4615 -0.1550
vn -0.9523 0.0365 -0.3031
vn 0.2861 -0.1818 0.9408
vn -0.2115 0.1729 -0.9620
vn -0.9850 0.1165 0.1276
vn -0.7500 0.6377 -0.1756
vn -0.9219 0.2272 -0.3139
vn 0.2352 0.1472 0.9607
vn 0.7659 0.0996 -0.6351
vn 0.9484 0.2226 -0.2259
vn 0.7971 -0.3393 -0.4995
vn 0.9388 -0.0996 0.3297
vn 0.9940 0.0307 0.1047
vn 0.9556 0.0861 0.2816
vn -0.7248 0.2172 0.6538
vn -0.6251 0.3841 0.6795
vn -0.8148 0.2875 0.5035
vn -0.9633 0.2237 0.1484
vn -0.7358 0.6529 -0.1797
vn -0.9255 0.2326 -0.2990
vn -0.0054 0.1867 -0.9824
vn -0.8553 0.3170 0.4099
vn -0.7551 0.4725 0.4544
vn -0.8511 0.4499 0.2706
vn 0.9420 -0.2924 0.1644
vn 0.9760 -0.2111 -0.0544
vn 0.9899 -0.1097 0.0901
vn 0.9126 -0.1427 -0.3830
vn 0.9879 -0.1461 0.0528
vn 0.7772 -0.5803 -0.2434
vn 0.6126 0.1677 0.7724
vn -0.1454 0.9888 -0.0351
vn 0.0031 -1.0000 0.0024
vn -0.9926 0.0978 -0.0717
vn 0.1310 0.9906 -0.0399
vn 0.9976 0.0501 -0.0474
vn 0.9153 0.1159 -0.3858
vn -0.0108 0.0584 -0.9982
vn -0.8393 0.3404 0.4240
vn -0.0123 0.2070 0.9783
vn -0.0485 -0.9752 0.2159
vn -0.9352 0.0703 -0.3471
vn -0.8544 0.1352 -0.5017
vn -0.0192 -0.1345 0.9907
vn -0.9109 -0.2877 0.2957
vn -0.0000 -0.0480 -0.9988
vn 0.9318 -0.0592 -0.3581
vn 0.9664 -0.1266 0.2237
vn -0.9143 -0.2586 -0.3119
vn -0.8362 0.1075 0.5378
vn -0.4997 -0.0265 0.8658
vn -0.0486 -0.9763 -0.2108
vn -0.8582 0.3351 -0.3888
vn 0.9243 0.2484 0.2898
vn -0.1054 -0.0257 -0.9941
vn 0.8441 0.0063 -0.5361
vn 0.8787 -0.1723 -0.4452
vn 0.9329 0.0447 0.3575
vn 0.7945 -0.3610 0.4883
vn 0.1034 0.0685 0.9923
vn 0.1674 -0.4074 0.8978
vn 0.4565 -0.6327 -0.6255
vn 0.5804 -0.4839 -0.6550
vn 0.7109 -0.6372 0.2976
vn 0.8402 -0.3500 0.4142
vn 0.0444 -0.4556 -0.8891
vn 0.1901 -0.4302 -0.8825
vn -0.2399 -0.0496 -0.9695
vn -0.2427 -0.2642 -0.9334
vn -0.4177 -0.1226 -0.9003
vn -0.4623 0.0911 -0.8820
vn -0.1824 -0.0322 0.9827
vn -0.4805 0.1153 0.8694
vn -0.5079 -0.1031 0.8552
vn -0.2446 -0.2404 0.9393
vn -0.6625 0.7273 0.1794
vn -0.6933 0.5669 0.4450
vn -0.6007 0.7211 0.3452
vn -0.5422 0.6403 0.5441
vn -0.9866 0.1579 -0.0419
vn -0.9513 0.2950 -0.0896
vn -0.8182 0.5359 0.2082
vn -0.9100 0.2350 0.3416
vn -0.5135 0.0776 0.8546
vn -0.7694 0.1588 0.6188
vn -0.7386 0.1344 0.6606
vn -0.4996 0.3858 0.7756
vn -0.6301 0.0895 -0.7713
vn -0.5694 0.2540 -0.7819
vn -0.7727 0.1934 -0.6047
vn -0.7724 0.0085 -0.6350
vn -0.0843 0.0938 -0.9920
vn -0.0881 0.1156 -0.9894
vn -0.2287 0.0899 -0.9693
vn -0.2014 0.0822 -0.9761
vn -0.1431 0.1087 0.9837
vn -0.2345 0.1190 0.9648
vn -0.2286 0.1558 0.9610
vn -0.0547 0.0970 0.9938
vn -0.8076 -0.5730 0.1394
vn -0.5350 -0.8327 0.1429
vn -0.3618 -0.7110 0.6029
vn -0.6728 -0.4575 0.5814
vn -0.0723 -0.0337 0.9968
vn -0.2339 0.0386 0.9715
vn -0.2422 -0.2004 0.9493
vn -0.1095 -0.0978 0.9892
vn -0.1510 -0.1593 -0.9756
vn -0.1352 -0.2162 -0.9669
vn -0.2198 -0.3255 -0.9196
vn -0.2327 -0.1166 -0.9655
vn -0.0615 -0.5828 -0.8103
vn -0.1963 -0.4250 -0.8837
vn -0.0526 -0.4581 -0.8873
vn -0.3866 -0.4019 0.8301
vn -0.5160 -0.4080 0.7532
vn -0.2095 -0.4263 0.8800
vn -0.5373 -0.2415 0.8081
vn 0.5129 -0.2383 0.8247
vn -0.4799 -0.5958 0.6440
vn -0.7508 -0.4165 0.5126
vn -0.7521 -0.5433 0.3731
vn -0.6279 -0.6808 0.3772
vn -0.4914 -0.6461 -0.5840
vn -0.5592 -0.7141 -0.4211
vn -0.6158 -0.4982 -0.6104
vn -0.5299 -0.5299 -0.6621
vn -0.0342 -0.5142 0.8570
vn -0.3350 -0.5396 0.7724
vn -0.5887 -0.4508 -0.6710
vn -0.3083 -0.6195 -0.7219
vn -0.4385 -0.8542 -0.2793
vn -0.7438 -0.6018 -0.2910
vn -0.9862 0.1653 0.0029
vn -0.9599 0.2748 0.0561
vn -0.9694 0.1134 0.2178
vn -0.9738 -0.0291 0.2254
vn -0.7370 0.6280 -0.2499
vn -0.7433 0.6635 -0.0855
vn -0.9439 0.2881 0.1614
vn -0.7459 0.6581 0.1023
vn -0.8793 0.4515 -0.1513
vn -0.8689 0.4520 -0.2017
vn -0.8661 0.4753 0.1545
vn -0.9461 0.3194 0.0542
vn -0.0525 0.2424 -0.9688
vn -0.0133 0.1601 -0.9870
vn -0.1065 0.2063 -0.9727
vn -0.1970 0.2049 -0.9588
vn -0.1571 0.3146 0.9361
vn -0.3146 0.3629 0.8771
vn -0.2850 0.2797 0.9168
vn -0.1321 0.2080 0.9692
vn -0.9639 0.2473 0.0990
vn -0.8653 0.4994 0.0421
vn -0.7883 0.4408 0.4293
vn -0.7829 0.4958 0.3760
vn -0.2509 0.4105 0.8766
vn -0.5323 0.1784 0.8276
vn -0.4691 0.3887 0.7930
vn -0.1752 0.2492 0.9525
vn -0.4168 0.2278 -0.8800
vn -0.3540 0.1526 -0.9227
vn -0.5443 0.2790 -0.7911
vn -0.6010 0.2018 -0.7733
vn 0.3533 0.3391 -0.8719
vn 0.9303 0.1392 0.3393
vn 0.4209 0.0431 0.9061
vn 0.9311 -0.1378 0.3379
vn 0.2814 0.8097 0.5150
vn 0.2035 0.9791 -0.0028
vn 0.9367 0.0567 -0.3456
vn 0.9455 0.2016 -0.2557
vn 0.5159 0.1986 -0.8333
vn -0.5608 0.7918 -0.2418
vn -0.5608 0.7919 -0.2418
vn -0.8009 0.5987 -0.0081
vn -0.4129 0.1035 0.9049
vn -0.8668 0.3265 0.3769
vn 0.5109 0.1500 -0.8464
vn 0.9453 0.0180 -0.3258
vn 0.8804 -0.4002 0.2545
vn 0.5659 -0.5559 0.6088
vn -0.7440 -0.4933 0.4507
vn -0.7501 -0.6154 0.2421
vn -0.6767 -0.3307 0.6578
vn -0.8194 -0.4925 0.2934
vn -0.7699 -0.5036 -0.3921
vn -0.6013 -0.2403 -0.7620
vn -0.6598 -0.4581 -0.5956
vn -0.4682 -0.4503 -0.7603
vn -0.8973 -0.4376 0.0576
vn -0.7410 -0.5876 -0.3250
vn -0.7495 -0.6346 0.1885
vn -0.8441 -0.5349 -0.0362
vn -0.8269 -0.3809 -0.4138
vn -0.7727 -0.4477 0.4501
vn -0.0828 0.0217 -0.9963
vn -0.3426 0.2335 -0.9100
vn 0.0842 0.2760 -0.9575
vn 0.1314 0.0384 0.9906
vn 0.2475 0.2160 0.9445
vn -0.0859 0.2174 0.9723
vn -0.0045 0.1902 -0.9817
vn -0.3109 0.2944 -0.9037
vn 0.1959 0.4228 -0.8848
vn -0.7520 -0.3869 0.5337
vn -0.8029 -0.3132 -0.5072
vn -0.5753 -0.0544 -0.8161
vn -0.7026 -0.2443 -0.6684
vn -0.4975 -0.2620 -0.8270
vn -0.8456 -0.0131 0.5337
vn -0.8624 -0.2340 0.4489
vn -0.7206 0.1598 0.6747
vn -0.9203 -0.0574 0.3870
vn -0.9052 -0.4213 -0.0569
vn 0.1024 0.5111 0.8534
vn 0.3478 0.4186 0.8389
vn 0.4575 0.5589 0.6916
vn -0.9967 -0.0762 0.0277
vn -0.8948 -0.3614 -0.2623
vn -0.9320 -0.3232 0.1638
vn -0.9785 -0.1931 -0.0718
vn -0.1010 0.1837 0.9778
vn -0.2522 0.1350 0.9582
vn 0.1235 0.2102 0.9698
vn -0.2380 0.2843 0.9287
vn -0.6966 -0.3436 0.6299
vn -0.7389 -0.5208 0.4275
vn -0.5769 -0.1778 0.7972
vn -0.7852 -0.3622 0.5022
vn -0.8253 -0.2371 -0.5126
vn -0.5701 -0.0586 -0.8195
vn -0.7042 -0.1896 -0.6842
vn -0.4949 -0.1733 -0.8515
vn 0.5129 0.0207 0.8582
vn 0.6788 -0.1271 0.7233
vn 0.7494 0.0943 0.6554
vn -0.7136 -0.1888 0.6746
vn -0.9933 -0.1124 0.0275
vn -0.8875 -0.2980 -0.3515
vn -0.9132 -0.3950 0.1006
vn -0.9718 -0.2178 -0.0909
vn 0.1425 -0.4376 0.8878
vn -0.0181 -0.5067 0.8619
vn 0.3278 -0.4127 0.8498
vn -0.0175 -0.3387 0.9407
vn 0.0684 0.1060 -0.9920
vn -0.1918 0.2981 -0.9351
vn 0.2838 0.3356 -0.8983
vn -0.9903 -0.1389 0.0024
vn 0.0516 0.2561 -0.9653
vn -0.2000 0.4475 -0.8716
vn 0.2959 0.4386 -0.8486
vn -0.9851 -0.1718 -0.0065
vn -0.7979 -0.1082 0.5930
vn -0.8346 -0.2935 0.4662
vn -0.6429 -0.0667 0.7630
vn -0.8979 -0.0788 0.4331
vn -0.8487 -0.1066 -0.5181
vn -0.5737 0.1495 -0.8053
vn -0.7433 -0.0424 -0.6676
vn -0.5598 -0.1076 -0.8216
vn 0.4987 0.2394 0.8330
vn 0.6821 0.1097 0.7230
vn 0.7679 0.2906 0.5709
vn -0.7626 -0.2403 0.6005
vn -0.9980 0.0260 0.0577
vn -0.9335 -0.1748 -0.3131
vn -0.9600 -0.2097 0.1857
vn -0.9965 -0.0701 -0.0464
vn -0.0366 -0.0845 0.9958
vn -0.1845 -0.1444 0.9722
vn 0.1449 -0.1096 0.9834
vn -0.1812 0.0615 0.9815
vn -0.9883 0.1076 -0.1080
vn -0.8134 -0.3127 -0.4904
vn -0.8731 0.1149 -0.4739
vn -0.6773 -0.2696 -0.6845
vn -0.4826 -0.2750 -0.8316
vn 0.0791 0.0734 -0.9942
vn -0.1754 0.2764 -0.9449
vn 0.2933 0.3052 -0.9060
vn 0.1009 0.0027 -0.9949
vn -0.1527 0.2103 -0.9656
vn 0.3251 0.2291 -0.9175
vn -0.7800 -0.0743 0.6213
vn -0.8305 -0.2724 -0.4859
vn -0.8829 0.0913 -0.4606
vn -0.6333 -0.2262 -0.7402
vn -0.4857 -0.2401 -0.8405
vn -0.7216 -0.2013 0.6624
vn -0.7494 -0.1584 0.6429
vn -0.7912 0.0018 -0.6116
vn -0.7486 -0.3082 -0.5871
vn -0.5165 0.0389 -0.8554
vn -0.6984 -0.2091 -0.6844
vn 0.1378 0.2128 -0.9673
vn 0.9971 0.0696 0.0312
vn -0.0101 0.1241 0.9922
vn 0.1200 -0.9912 0.0561
vn 0.0268 0.9541 0.2984
vn -0.1311 0.9912 0.0184
vn 0.9892 0.1080 -0.0988
vn -0.9833 0.0354 0.1785
vn -0.0088 -1.0000 0.0028
vn 0.1500 0.9885 0.0166
vn 0.0256 0.9407 0.3382
vn -0.1133 -0.9923 0.0497
vn 0.4415 0.1113 0.8903
vn -0.1279 0.2220 -0.9666
vn -0.3204 -0.2044 -0.9250
vn -0.2459 0.1806 -0.9523
vn -0.1006 0.2356 -0.9666
vn -0.9735 -0.1364 0.1836
vn -0.9599 -0.1021 -0.2611
vn -0.7998 -0.3064 -0.5162
vn -0.8394 -0.5345 -0.0982
vn -0.5831 -0.6099 0.5367
vn -0.8729 -0.4419 0.2068
vn -0.8490 -0.5284 0.0028
vn -0.6596 -0.7506 0.0390
vn -0.1038 -0.0256 0.9943
vn -0.2945 -0.1560 0.9428
vn -0.2171 -0.5111 0.8316
vn -0.5007 0.1074 0.8589
vn -0.8344 -0.0901 -0.5437
vn -0.7378 -0.5448 -0.3985
vn -0.9886 0.0024 -0.1508
vn -0.8719 -0.2923 0.3928
vn -0.9372 -0.1169 0.3286
vn -0.9699 -0.1841 0.1596
vn 0.8878 0.1808 0.4233
vn 0.8988 0.3310 0.2874
vn 0.8164 0.3354 0.4701
vn 0.1169 0.2311 -0.9659
vn 0.9772 0.0535 0.2053
vn 0.9587 0.1229 -0.2565
vn 0.8415 0.5321 -0.0939
vn -0.7202 -0.2554 -0.6451
vn -0.5971 -0.6592 -0.4571
vn -0.9534 -0.1533 -0.2598
vn -0.8090 -0.4457 0.3833
vn -0.8982 -0.2942 0.3267
vn -0.9209 -0.3625 0.1434
vn 0.7860 0.0697 0.6143
vn 0.8629 0.1877 0.4692
vn 0.7248 0.2382 0.6464
vn 0.2466 -0.0945 -0.9645
vn 0.9853 -0.0877 0.1466
vn 0.9523 0.0365 -0.3031
vn 0.8734 0.4616 -0.1553
vn -0.2861 -0.1818 0.9408
vn 0.2115 0.1729 -0.9620
vn 0.9849 0.1168 0.1277
vn 0.9219 0.2272 -0.3139
vn 0.7500 0.6377 -0.1756
vn -0.2352 0.1472 0.9607
vn -0.7659 0.0996 -0.6351
vn -0.7969 -0.3393 -0.4997
vn -0.9484 0.2223 -0.2259
vn -0.9388 -0.0995 0.3297
vn -0.9556 0.0861 0.2816
vn -0.9940 0.0307 0.1047
vn 0.7248 0.2172 0.6538
vn 0.8147 0.2875 0.5035
vn 0.6251 0.3841 0.6795
vn 0.9633 0.2237 0.1484
vn 0.9255 0.2326 -0.2990
vn 0.7357 0.6530 -0.1800
vn 0.0054 0.1867 -0.9824
vn 0.8553 0.3170 0.4099
vn 0.8511 0.4498 0.2706
vn 0.7552 0.4725 0.4544
vn -0.9421 -0.2924 0.1644
vn -0.9899 -0.1097 0.0901
vn -0.9760 -0.2110 -0.0544
vn -0.9126 -0.1427 -0.3830
vn -0.7772 -0.5803 -0.2434
vn -0.9878 -0.1463 0.0528
vn -0.6126 0.1677 0.7724
vn 0.1454 0.9888 -0.0351
vn -0.0031 -1.0000 0.0024
vn 0.9926 0.0978 -0.0717
vn -0.1310 0.9906 -0.0399
vn -0.9976 0.0501 -0.0474
vn -0.9153 0.1159 -0.3858
vn 0.0108 0.0584 -0.9982
vn 0.8393 0.3404 0.4240
vn 0.0123 0.2070 0.9783
vn 0.0485 -0.9752 0.2159
vn 0.9352 0.0703 -0.3471
vn 0.8545 0.1352 -0.5016
vn 0.0192 -0.1345 0.9907
vn 0.9109 -0.2877 0.2957
vn -0.9318 -0.0592 -0.3581
vn -0.9664 -0.1266 0.2237
vn 0.9143 -0.2586 -0.3119
vn 0.8362 0.1075 0.5378
vn 0.4997 -0.0264 0.8658
vn 0.0486 -0.9763 -0.2108
vn 0.8582 0.3351 -0.3888
vn -0.9243 0.2484 0.2898
vn 0.1054 -0.0257 -0.9941
vn -0.8441 0.0063 -0.5361
vn -0.8787 -0.1722 -0.4453
vn -0.9329 0.0447 0.3575
vn -0.7946 -0.3611 0.4880
vn -0.1034 0.0685 0.9923
vn -0.1674 -0.4074 0.8978
vn -0.4565 -0.6327 -0.6255
vn -0.5804 -0.4840 -0.6549
vn -0.7109 -0.6372 0.2976
vn -0.8401 -0.3501 0.4143
vn -0.0444 -0.4556 -0.8891
vn -0.1900 -0.4302 -0.8825
vn -0.0000 -0.5166 -0.8562
vn -0.0000 0.1291 0.9916
vn 0.0359 0.0757 0.9965
vn -0.2387 0.0525 0.9697
vn -0.3977 -0.0547 0.9159
vn -0.0140 -0.0405 0.9991
vn -0.2587 0.2420 0.9352
vn -0.3764 0.1470 -0.9147
vn -0.3361 0.2739 -0.9011
vn -0.0944 -0.0353 -0.9949
vn -0.4238 -0.1298 -0.8964
vn -0.7442 -0.5750 -0.3399
vn -0.6568 -0.5984 -0.4589
vn -0.5999 -0.7217 -0.3454
vn -0.7520 -0.5896 -0.2948
vn -0.9856 -0.1667 0.0279
vn -0.9154 -0.4026 0.0002
vn -0.8401 -0.4680 -0.2742
vn -0.9852 0.0460 -0.1654
vn -0.5081 -0.0169 -0.8611
vn -0.6743 -0.0652 -0.7356
vn -0.6308 -0.3230 -0.7056
vn -0.5669 -0.4063 -0.7166
vn -0.5522 -0.0624 0.8314
vn -0.7101 -0.4400 0.5496
vn -0.7538 -0.1981 0.6266
vn -0.8712 -0.1669 0.4617
vn -0.0285 -0.1615 0.9865
vn -0.0649 -0.0975 0.9931
vn -0.0296 -0.3227 0.9460
vn -0.0617 0.0065 0.9981
vn -0.0790 -0.1791 -0.9807
vn -0.1155 -0.0042 -0.9933
vn -0.1021 -0.2655 -0.9587
vn -0.1360 -0.1839 -0.9735
vn -0.1841 0.7874 -0.5884
vn -0.6420 0.7057 -0.2998
vn -0.7254 0.6566 -0.2066
vn -0.1781 0.9810 0.0768
vn -0.1703 0.1386 -0.9756
vn 0.0021 0.2463 -0.9692
vn 0.0006 -0.0322 -0.9995
vn -0.1103 0.0979 -0.9891
vn -0.1922 0.1948 0.9618
vn -0.1352 0.2158 0.9670
vn -0.0193 0.1265 0.9918
vn -0.0668 0.3314 0.9411
vn 0.0193 0.3412 0.9398
vn 0.0804 0.5158 0.8529
vn -0.0511 0.4594 0.8868
vn -0.7638 0.4136 -0.4956
vn -0.6831 0.7272 -0.0678
vn -0.5710 0.6151 -0.5436
vn -0.6286 0.6803 -0.3768
vn -0.4921 0.6467 0.5828
vn -0.6448 0.5281 0.5526
vn -0.4648 0.5175 0.7185
vn -0.4724 0.7445 0.4718
vn -0.0321 0.5155 -0.8563
vn 0.1371 0.7260 -0.6739
vn -0.0563 0.9984 -0.0009
vn -0.6334 0.6632 0.3987
vn -0.5684 0.7121 0.4121
vn -0.1582 0.6996 0.6968
vn -0.9489 -0.3031 0.0882
vn -0.9665 -0.2559 0.0204
vn -0.8616 -0.5044 -0.0565
vn -0.9741 -0.0097 -0.2259
vn -0.9056 -0.3976 0.1477
vn -0.8002 -0.5995 -0.0187
vn -0.7550 -0.6555 0.0192
vn -0.9348 -0.3508 -0.0548
vn -0.0548 -0.2345 0.9706
vn -0.0842 -0.2327 0.9689
vn -0.0039 -0.2790 0.9603
vn -0.0566 -0.0224 0.9981
vn -0.1193 -0.3446 -0.9311
vn -0.0305 -0.0415 -0.9987
vn -0.1022 -0.4580 -0.8830
vn -0.1704 -0.2396 -0.9558
vn -0.9352 -0.3519 -0.0394
vn -0.6899 -0.6674 -0.2804
vn -0.7378 -0.6508 -0.1795
vn -0.8835 -0.3519 -0.3093
vn -0.3858 -0.1885 -0.9031
vn -0.4474 -0.1733 -0.8774
vn -0.3262 -0.4966 -0.8043
vn -0.3720 -0.5055 -0.7785
vn -0.5280 -0.1371 0.8381
vn -0.5078 -0.3916 0.7673
vn -0.5058 -0.3100 0.8050
vn -0.5699 -0.1466 0.8085
vn -0.1434 -0.5024 0.8527
vn -0.2449 -0.1780 0.9531
vn -0.2704 -0.0089 0.9627
vn -0.7671 0.5282 0.3641
vn -0.9599 0.1040 0.2602
vn -0.9903 -0.1330 -0.0396
vn -0.7781 -0.0825 0.6226
vn -0.9665 0.2381 0.0960
vn -0.8744 0.4381 -0.2085
vn -0.8041 0.5734 -0.1566
vn -0.7154 0.1907 -0.6722
vn -0.3814 0.3109 -0.8706
vn -0.2903 0.1572 -0.9439
vn -0.3407 -0.3015 -0.8905
vn 0.2389 0.0523 0.9696
vn 0.2590 0.2417 0.9352
vn 0.0143 -0.0408 0.9991
vn 0.3977 -0.0550 0.9159
vn 0.3764 0.1470 -0.9147
vn 0.4237 -0.1298 -0.8964
vn 0.0944 -0.0351 -0.9949
vn 0.3362 0.2739 -0.9011
vn 0.7458 -0.5776 -0.3319
vn 0.7519 -0.5898 -0.2947
vn 0.5998 -0.7218 -0.3454
vn 0.6562 -0.5987 -0.4593
vn 0.9856 -0.1667 0.0278
vn 0.9852 0.0459 -0.1653
vn 0.8402 -0.4680 -0.2741
vn 0.9154 -0.4025 0.0002
vn 0.5082 -0.0169 -0.8611
vn 0.5669 -0.4063 -0.7166
vn 0.6308 -0.3229 -0.7056
vn 0.6743 -0.0653 -0.7355
vn 0.5522 -0.0624 0.8314
vn 0.8712 -0.1669 0.4618
vn 0.7538 -0.1981 0.6266
vn 0.7102 -0.4400 0.5496
vn 0.0285 -0.1615 0.9865
vn 0.0617 0.0065 0.9981
vn 0.0296 -0.3227 0.9460
vn 0.0649 -0.0975 0.9931
vn 0.0790 -0.1791 -0.9807
vn 0.1360 -0.1839 -0.9735
vn 0.1021 -0.2655 -0.9587
vn 0.1155 -0.0042 -0.9933
vn 0.1841 0.7874 -0.5884
vn 0.1780 0.9810 0.0767
vn 0.7254 0.6566 -0.2066
vn 0.6419 0.7057 -0.2998
vn 0.1703 0.1386 -0.9756
vn 0.1103 0.0979 -0.9891
vn -0.0005 -0.0322 -0.9995
vn -0.0020 0.2462 -0.9692
vn 0.1922 0.1948 0.9618
vn 0.0668 0.3313 0.9411
vn 0.0194 0.1265 0.9918
vn 0.1352 0.2158 0.9670
vn -0.0193 0.3412 0.9398
vn 0.0511 0.4594 0.8868
vn -0.0803 0.5158 0.8530
vn 0.7637 0.4137 -0.4957
vn 0.6286 0.6803 -0.3768
vn 0.5710 0.6151 -0.5436
vn 0.6830 0.7273 -0.0678
vn 0.4921 0.6467 0.5828
vn 0.4724 0.7445 0.4718
vn 0.4648 0.5175 0.7184
vn 0.6447 0.5281 0.5526
vn 0.0321 0.5155 -0.8563
vn -0.1372 0.7259 -0.6739
vn 0.0561 0.9984 -0.0008
vn 0.1580 0.6998 0.6967
vn 0.5683 0.7122 0.4121
vn 0.6334 0.6633 0.3987
vn 0.9489 -0.3030 0.0882
vn 0.9741 -0.0098 -0.2259
vn 0.8616 -0.5044 -0.0564
vn 0.9665 -0.2559 0.0204
vn 0.8366 -0.5370 0.1086
vn 0.8689 -0.4901 0.0699
vn 0.6772 -0.5447 0.4947
vn 0.7432 -0.6635 0.0856
vn 0.9055 -0.3980 0.1473
vn 0.9347 -0.3511 -0.0548
vn 0.7548 -0.6557 0.0185
vn 0.8000 -0.5997 -0.0190
vn 0.0548 -0.2345 0.9706
vn 0.0566 -0.0224 0.9981
vn 0.0038 -0.2790 0.9603
vn 0.0842 -0.2328 0.9689
vn 0.1192 -0.3446 -0.9311
vn 0.1704 -0.2396 -0.9558
vn 0.1022 -0.4580 -0.8831
vn 0.0304 -0.0415 -0.9987
vn 0.9351 -0.3521 -0.0391
vn 0.8835 -0.3519 -0.3092
vn 0.7378 -0.6507 -0.1794
vn 0.6900 -0.6672 -0.2806
vn 0.3858 -0.1885 -0.9031
vn 0.3721 -0.5055 -0.7785
vn 0.3262 -0.4966 -0.8044
vn 0.4474 -0.1733 -0.8774
vn 0.5280 -0.1370 0.8381
vn 0.5698 -0.1466 0.8086
vn 0.5057 -0.3100 0.8051
vn 0.5075 -0.3916 0.7675
vn 0.1436 -0.5025 0.8526
vn 0.2711 -0.0092 0.9625
vn 0.2452 -0.1782 0.9529
vn 0.7671 0.5283 0.3639
vn 0.7781 -0.0823 0.6227
vn 0.9904 -0.1328 -0.0397
vn 0.9599 0.1040 0.2602
vn 0.9665 0.2381 0.0960
vn 0.7155 0.1905 -0.6721
vn 0.8042 0.5734 -0.1566
vn 0.8744 0.4381 -0.2085
vn 0.3813 0.3108 -0.8706
vn 0.3405 -0.3015 -0.8906
vn 0.2903 0.1572 -0.9439
vn -0.0000 -0.1292 -0.9916
vn -0.0359 -0.1820 -0.9826
vn 0.0442 -0.9959 0.0784
vn -0.1421 -0.9561 0.2562
vn 0.0717 -0.9744 0.2132
vn -0.2603 -0.9074 0.3298
vn -0.4196 0.2086 0.8834
vn -0.5383 -0.0553 0.8410
vn -0.3281 -0.1404 0.9342
vn -0.1983 0.0996 0.9751
vn -0.0261 -0.9996 -0.0118
vn 0.1117 -0.9607 0.2542
vn 0.1319 -0.9886 0.0726
vn 0.1518 -0.8750 0.4597
vn -0.5720 -0.6955 -0.4349
vn -0.4998 0.8661 -0.0035
vn -0.4785 0.8025 0.3563
vn -0.3373 0.9208 0.1959
vn -0.3685 0.9252 0.0908
vn 0.2934 -0.8797 -0.3742
vn 0.6770 -0.7119 -0.1866
vn 0.0727 -0.9972 0.0178
vn -0.5310 -0.6384 -0.5573
vn -0.5775 -0.6962 -0.4264
vn -0.6636 -0.5238 -0.5340
vn -0.0000 -0.9912 0.1325
vn 0.7547 0.4655 0.4624
vn 0.7404 0.5876 0.3265
vn 0.6099 0.5741 0.5463
vn -0.2706 -0.9613 -0.0519
vn -0.0023 -0.9183 -0.3960
vn 0.0229 -0.9978 0.0626
vn -0.1395 -0.9797 -0.1438
vn -0.7159 0.6945 0.0713
vn -0.8396 0.5374 0.0791
vn -0.8573 0.4540 0.2427
vn 0.3619 -0.8789 0.3106
vn -0.6770 -0.7120 -0.1864
vn -0.2934 -0.8797 -0.3742
vn -0.0726 -0.9972 0.0178
vn -0.6125 0.7888 -0.0513
vn -0.7748 0.6124 0.1574
vn -0.6337 0.6331 0.4446
vn 0.5391 -0.8313 0.1355
vn 0.3889 -0.9182 0.0745
vn 0.4434 -0.8890 -0.1144
vn -0.7942 0.5273 0.3019
vn -0.8068 0.3971 0.4375
vn -0.6772 0.4918 0.5472
vn -0.4490 0.8254 -0.3423
vn -0.3529 0.8192 -0.4520
vn -0.4496 0.7279 -0.5178
vn 0.8284 0.5593 0.0302
vn 0.7140 0.5776 -0.3956
vn 0.3982 0.8925 -0.2118
vn 0.0023 -0.9183 -0.3960
vn 0.2706 -0.9613 -0.0518
vn 0.1395 -0.9797 -0.1438
vn -0.0229 -0.9978 0.0626
vn 0.2771 0.7935 0.5419
vn -0.3619 -0.8789 0.3106
vn -0.2771 0.7935 0.5419
vn 0.8396 0.5374 0.0791
vn 0.7159 0.6946 0.0713
vn 0.8573 0.4540 0.2427
vn -0.3889 -0.9182 0.0745
vn -0.5392 -0.8312 0.1355
vn -0.4434 -0.8890 -0.1144
vn 0.7748 0.6124 0.1574
vn 0.6124 0.7889 -0.0512
vn 0.6336 0.6331 0.4447
vn 0.0904 -0.9946 0.0510
vn 0.0020 -0.9780 0.2084
vn -0.0091 -0.9900 0.1408
vn -0.1014 -0.9846 0.1421
vn 0.3529 0.8192 -0.4520
vn 0.4490 0.8254 -0.3423
vn 0.4496 0.7278 -0.5178
vn 0.1380 -0.9603 -0.2425
vn 0.2409 -0.9660 -0.0939
vn 0.0342 -0.9840 -0.1749
vn 0.1447 -0.9727 -0.1817
vn 0.0071 -0.9907 -0.1356
vn 0.1865 -0.7899 -0.5842
vn 0.2760 -0.8962 -0.3474
vn 0.3916 -0.7917 -0.4688
vn -0.0020 -0.9780 0.2084
vn -0.0905 -0.9946 0.0509
vn 0.1014 -0.9846 0.1421
vn 0.0091 -0.9900 0.1408
vn 0.1421 -0.9561 0.2562
vn -0.0442 -0.9959 0.0785
vn 0.2603 -0.9075 0.3298
vn -0.0717 -0.9744 0.2132
vn -0.2409 -0.9660 -0.0939
vn -0.1380 -0.9603 -0.2425
vn -0.1447 -0.9727 -0.1817
vn -0.0341 -0.9840 -0.1749
vn -0.1118 -0.9607 0.2542
vn 0.0260 -0.9996 -0.0118
vn -0.1518 -0.8750 0.4596
vn -0.1319 -0.9886 0.0726
vn 0.4938 -0.5174 -0.6989
vn -0.1865 -0.7898 -0.5843
vn -0.0071 -0.9908 -0.1355
vn -0.3916 -0.7917 -0.4688
vn -0.2761 -0.8962 -0.3474
vt 0.500000 0.694707
vt 0.999999 0.694706
vt 1.000000 1.000000
vt 0.500000 1.000000
vt 0.500000 0.784929
vt 0.500000 1.000000
vt 1.000000 1.000000
vt 1.000000 0.768410
vt 1.000000 0.708619
vt 1.000000 0.792176
vt 1.000000 0.739208
vt 1.000000 0.430326
vt 0.853609 0.378388
vt 0.960184 0.554803
vt 1.000000 0.522786
vt 0.587442 0.395965
vt 0.525857 0.573305
vt 0.484840 0.341080
vt 1.000000 0.341080
vt 1.000000 0.500000
vt 0.500000 0.500000
vt 0.000000 0.363392
vt 0.000000 0.500000
vt 0.000000 0.484569
vt 0.000000 0.618136
vt 1.000000 1.000000
vt 0.000000 0.784929
vt 0.000000 1.000000
vt 0.000000 0.694707
vt 0.000000 1.000000
vt 0.250000 0.500000
vt 0.000000 0.500000
vt 0.853609 0.378388
vt 0.599746 0.360534
vt 0.443844 0.750000
vt 0.488653 1.000000
vt 0.544565 1.000000
vt 0.496968 0.750000
vt 0.250000 0.500000
vt 0.324345 0.648690
vt 0.000000 0.500000
vt 1.000000 0.790817
vt 0.875000 0.500000
vt 0.246472 0.140841
vt 0.496968 0.500000
vt 0.625000 0.500000
vt 0.517726 0.625000
vt 0.625000 0.750000
vt 0.625000 0.625000
vt 0.625000 1.000000
vt 0.450069 0.625000
vt 0.875000 0.750000
vt 0.875000 0.625000
vt 0.432239 0.505753
vt 0.065993 0.037710
vt 0.000000 0.000000
vt 0.320581 0.637393
vt 0.393090 1.000000
vt 0.148690 0.297379
vt 0.381122 0.623013
vt 0.421915 0.288448
vt 0.402440 0.528040
vt 1.000000 0.430325
vt 0.356115 0.341080
vt 1.000000 0.341080
vt 0.135026 0.078837
vt -0.190256 -0.111084
vt 0.356114 0.341080
vt 1.000000 0.341080
vt 1.000000 0.430325
vt 0.853610 0.378388
vt 0.214111 0.125012
vt 0.602738 0.351920
vt 1.000000 0.430325
vt 0.356114 0.341080
vt 0.679304 0.341080
vt 0.602738 0.351919
vt 0.214111 0.125012
vt 0.999999 0.341080
vt 0.356114 0.341080
vt 0.356114 0.341080
vt 0.214111 0.125012
vt 1.000000 0.430325
vt 0.853609 0.378388
vt 1.000000 0.341080
vt 0.602738 0.351919
vt 0.375000 0.187500
vt 0.375000 0.250000
vt 0.625000 0.250000
vt 0.625000 0.187500
vt 0.356114 0.341080
vt 0.670286 0.341080
vt 0.375000 0.375000
vt 0.361647 0.486647
vt 0.638352 0.486646
vt 0.625000 0.375000
vt 0.375000 0.625000
vt 0.375000 0.750000
vt 0.625000 0.750000
vt 0.625000 0.625000
vt 0.375000 0.875000
vt 0.375000 1.000000
vt 0.625000 0.875000
vt 0.250000 0.625000
vt 0.250000 0.750000
vt 0.750000 0.625000
vt 0.750000 0.750000
vt 0.875000 0.625000
vt 0.750000 0.562500
vt 0.875000 0.562500
vt 0.250000 0.562500
vt 0.368324 0.555823
vt 0.631676 0.555823
vt 0.375000 0.000000
vt 0.375000 0.125000
vt 0.625000 0.125000
vt 0.625000 0.000000
vt 0.125000 0.562500
vt 0.125000 0.625000
vt 0.125000 0.750000
vt 1.000000 0.901263
vt 1.000000 0.929437
vt 1.000000 0.906526
vt 1.000000 0.906526
vt 1.000000 0.792176
vt 1.000000 0.792176
vt 1.000000 0.901263
vt 0.999999 0.901263
vt 1.000000 0.929437
vt 1.000000 0.929437
vt 1.000000 0.739207
vt 1.000000 0.790817
vt 1.000000 0.790818
vt 1.000000 0.901263
vt 0.999999 0.929436
vt 1.000000 0.906526
vt 1.000000 0.792176
vt 1.000000 0.739208
vt 1.000000 0.790817
vt 1.000000 0.901263
vt 0.999999 0.792176
vt 0.750000 0.500000
vt 0.125000 0.500000
vt 0.875000 0.500000
vt 0.500000 0.125000
vt 0.500000 0.250000
vt 0.625000 0.500000
vt 0.500000 0.625000
vt 0.500000 0.749999
vt 0.625000 0.750000
vt 0.625000 0.625000
vt 0.375000 0.250000
vt 0.375000 0.500000
vt 0.375000 0.125000
vt 0.500000 0.000000
vt 0.125000 0.500000
s 0
usemtl Material.001
f 45/1/1 42/2/2 22/3/3 29/4/4
f 44/5/5 31/6/6 25/7/7 43/8/8
f 46/9/9 43/8/10 119/10/11 118/11/12
f 41/12/13 35/13/14 27/14/15 39/15/16
f 37/16/17 32/17/18 27/14/19 35/13/20
f 36/18/21 34/19/22 26/20/23 33/21/24
f 5/22/25 36/18/26 33/21/27 3/23/28
f 6/24/29 4/25/30 32/17/31 37/16/32
f 38/26/33 25/7/34 31/6/35 40/6/36
f 8/27/37 2/28/38 31/6/39 44/5/40
f 7/29/41 45/1/42 29/4/43 1/30/44
f 171/31/45 169/32/46 1/30/46 29/4/47
f 35/13/48 59/33/49 61/34/50 37/16/51
f 57/35/52 19/36/52 15/37/52 54/38/52
f 172/39/53 173/40/54 40/6/55 31/6/56
f 171/31/57 29/4/58 40/6/59 173/40/60
f 172/39/61 31/6/62 2/28/61 170/41/61
f 22/3/63 38/26/64 40/6/65 29/4/66
f 34/19/67 41/12/68 39/15/69 26/20/70
f 42/2/71 46/9/72 118/11/73 116/42/74
f 26/20/75 39/15/76 46/9/77 42/2/78
f 3/23/79 33/21/80 45/1/81 7/29/82
f 4/25/83 8/27/84 44/5/85 32/17/86
f 39/15/87 27/14/88 43/8/89 46/9/90
f 32/17/91 44/5/92 43/8/93 27/14/94
f 33/21/95 26/20/96 42/2/97 45/1/98
f 14/43/99 17/44/99 53/45/99 50/46/99
f 55/47/100 54/38/100 48/48/100 52/49/100
f 54/38/101 15/37/101 12/50/101 48/48/101
f 58/51/102 57/35/102 54/38/102 55/47/102
f 52/49/103 48/48/103 12/52/103 16/53/103
f 50/46/104 52/49/104 16/53/104 14/43/104
f 56/54/105 58/51/105 55/47/105 53/45/105
f 53/45/106 55/47/106 52/49/106 50/46/106
f 18/55/107 56/54/107 53/45/107 17/44/107
f 28/56/108 47/57/108 11/58/109 9/56/108
f 21/59/110 51/60/110 47/57/110 28/56/110
f 10/56/111 13/61/111 49/62/111 24/56/111
f 24/56/112 49/62/112 51/60/112 21/59/112
f 13/61/113 49/62/113 56/54/113 18/55/113
f 49/62/114 51/60/114 58/51/114 56/54/114
f 51/60/115 47/57/115 57/35/115 58/51/115
f 47/57/116 11/58/116 19/36/116 57/35/116
f 41/12/117 62/63/118 59/33/119 35/13/120
f 36/18/121 60/64/122 30/65/123 34/19/124
f 34/19/125 30/65/126 62/63/127 41/12/128
f 20/56/129 64/56/129 23/66/129 6/67/129
f 5/56/130 63/56/130 64/56/130 20/56/130
f 5/56/131 63/56/131 60/64/132 36/18/133
f 6/67/134 37/16/135 61/34/136 23/66/134
f 63/56/137 71/56/137 68/68/138 60/64/139
f 63/56/140 71/56/140 72/56/140 64/56/140
f 60/64/141 68/68/142 66/69/143 30/65/144
f 62/63/145 70/70/146 67/71/147 59/33/148
f 64/56/149 72/56/149 65/72/149 23/66/149
f 61/34/150 69/73/151 65/72/152 23/66/152
f 30/65/153 66/69/154 70/70/155 62/63/156
f 59/33/157 67/71/158 69/73/159 61/34/160
f 70/70/161 78/74/162 75/13/163 67/71/164
f 68/68/165 90/75/166 96/76/167 66/69/168
f 69/73/169 77/77/170 73/78/171 65/72/171
f 72/56/172 94/56/172 93/56/172 80/56/172
f 66/69/173 74/79/174 78/74/175 70/70/176
f 67/71/177 75/13/178 77/77/179 69/73/180
f 71/56/181 89/56/181 90/75/182 68/68/183
f 72/56/184 80/56/184 73/78/184 65/72/184
f 79/56/185 87/56/185 84/80/186 76/81/187
f 80/56/188 88/56/188 81/82/188 73/78/188
f 78/74/189 86/83/190 83/84/191 75/13/192
f 76/81/193 84/80/194 82/85/195 74/79/196
f 77/77/197 85/86/198 81/82/199 73/78/199
f 79/56/200 87/56/200 88/56/200 80/56/200
f 74/79/201 82/85/202 86/83/203 78/74/204
f 75/13/205 83/84/206 85/86/207 77/77/208
f 147/87/209 98/88/209 97/89/209 145/90/209
f 90/75/210 91/91/211 95/92/212 96/76/213
f 89/56/214 92/56/214 91/91/215 90/75/216
f 92/56/217 79/56/217 76/81/218 91/91/219
f 92/56/220 79/56/220 80/56/220 93/56/220
f 91/91/221 76/81/222 74/79/223 95/92/224
f 71/56/225 89/56/225 94/56/225 72/56/225
f 94/56/226 89/56/226 92/56/226 93/56/226
f 95/92/227 74/79/228 66/69/229 96/76/230
f 109/93/231 103/94/231 104/95/231 110/96/231
f 107/97/232 101/98/232 102/99/232 108/100/232
f 111/101/233 100/102/233 99/50/233 112/103/233
f 114/104/234 111/105/234 101/98/234 107/97/234
f 113/106/235 112/107/235 99/52/235 105/108/235
f 150/109/236 113/106/236 105/108/236 145/110/236
f 149/111/237 114/104/237 107/97/237 146/112/237
f 146/112/238 107/97/238 108/100/238 148/113/238
f 100/114/239 106/115/239 105/116/239 99/117/239
f 147/118/240 106/119/240 114/104/240 149/111/240
f 148/113/241 108/100/241 113/106/241 150/109/241
f 108/100/242 102/99/242 112/107/242 113/106/242
f 106/119/243 100/120/243 111/105/243 114/104/243
f 101/98/244 111/101/244 112/103/244 102/99/244
f 98/88/245 109/93/245 110/96/245 97/89/245
f 22/3/246 42/2/247 116/42/248 115/121/248
f 117/122/249 38/26/250 22/3/251 115/121/252
f 25/7/253 38/26/254 117/122/255 120/123/256
f 43/8/257 25/7/258 120/123/259 119/10/259
f 140/123/260 126/124/260 125/125/260 139/126/260
f 142/127/261 121/128/261 123/129/262 141/130/263
f 141/130/264 123/129/265 126/124/266 140/123/266
f 139/126/267 125/125/267 124/11/268 143/131/269
f 144/132/270 122/133/270 121/128/270 142/127/270
f 143/131/271 124/11/272 122/133/273 144/132/273
f 121/128/274 127/134/274 129/135/275 123/129/276
f 123/129/277 129/135/278 132/136/279 126/124/279
f 125/125/280 131/137/280 130/138/281 124/11/282
f 122/133/283 128/139/283 127/134/283 121/128/283
f 124/11/284 130/138/285 128/139/286 122/133/286
f 126/124/287 132/136/287 131/137/287 125/125/287
f 128/139/288 134/42/288 133/140/288 127/134/288
f 130/138/289 136/11/290 134/42/291 128/139/291
f 132/136/292 138/123/292 137/141/292 131/137/292
f 127/134/293 133/140/293 135/130/294 129/135/295
f 129/135/296 135/130/297 138/123/298 132/136/298
f 131/137/299 137/141/299 136/11/300 130/138/301
f 118/11/302 143/131/303 144/132/304 116/42/304
f 116/42/305 144/132/305 142/127/305 115/121/305
f 119/10/306 139/126/306 143/131/307 118/11/308
f 117/122/309 141/130/310 140/123/311 120/123/311
f 115/121/312 142/127/312 141/130/313 117/122/314
f 120/123/315 140/123/315 139/126/315 119/10/315
f 104/95/316 148/113/316 150/109/316 110/142/316
f 98/143/317 147/118/317 149/111/317 109/39/317
f 103/94/318 146/112/318 148/113/318 104/95/318
f 109/39/237 149/111/237 146/112/237 103/94/237
f 110/142/319 150/109/319 145/110/319 97/144/319
f 106/115/320 147/87/320 145/90/320 105/116/320
f 168/145/321 160/146/321 154/89/321 164/116/321
f 160/146/322 161/21/322 158/147/322 154/89/322
f 167/148/323 162/149/323 156/150/323 166/151/323
f 162/149/324 159/6/324 152/50/324 156/150/324
f 163/119/325 151/120/325 155/98/325 165/97/325
f 166/151/326 135/130/327 138/123/326 158/147/326
f 155/98/328 151/102/328 159/6/328 162/149/328
f 165/97/329 155/98/329 162/149/329 167/148/329
f 153/152/330 157/153/330 161/21/330 160/146/330
f 163/154/331 153/152/331 160/146/331 168/145/331
f 151/114/332 163/154/332 168/145/332 159/155/332
f 157/153/333 165/97/333 167/148/333 161/21/333
f 156/150/334 133/140/334 135/130/335 166/151/334
f 153/156/336 163/119/336 165/97/336 157/153/336
f 161/21/337 167/148/337 166/151/337 158/147/337
f 159/155/338 168/145/338 164/116/338 152/117/338
f 158/147/339 138/123/339 137/141/339 154/89/339
f 154/89/340 137/141/340 136/11/341 164/116/340
f 164/116/342 136/11/343 134/42/342 152/117/342
f 152/50/344 134/42/344 133/140/344 156/150/344
f 24/56/345 172/39/345 170/41/345 10/56/345
f 28/56/346 171/31/346 173/40/347 21/59/346
f 24/56/348 21/59/348 173/40/348 172/39/349
f 28/56/350 9/56/350 169/32/350 171/31/351
f 199/1/352 183/4/353 176/3/354 196/2/355
f 198/5/356 197/8/357 179/7/358 185/6/359
f 200/9/360 272/11/361 273/10/362 197/8/363
f 195/12/364 193/15/365 181/14/366 189/13/367
f 191/16/368 189/13/369 181/14/370 186/17/371
f 190/18/372 187/21/373 180/20/374 188/19/375
f 5/22/376 3/23/377 187/21/378 190/18/379
f 174/24/380 191/16/381 186/17/382 4/25/383
f 192/26/384 194/6/385 185/6/386 179/7/387
f 8/27/388 198/5/389 185/6/390 2/28/391
f 7/29/392 1/30/393 183/4/394 199/1/395
f 323/31/396 183/4/397 1/30/398 169/32/398
f 189/13/399 191/16/400 215/34/401 213/33/402
f 211/35/403 208/38/403 15/37/403 19/36/403
f 324/39/404 185/6/405 194/6/406 325/40/407
f 323/31/408 325/40/409 194/6/410 183/4/411
f 324/39/412 170/41/412 2/28/412 185/6/413
f 176/3/414 183/4/415 194/6/416 192/26/417
f 188/19/418 180/20/419 193/15/420 195/12/421
f 196/2/422 270/42/423 272/11/424 200/9/425
f 180/20/426 196/2/427 200/9/428 193/15/429
f 3/23/430 7/29/431 199/1/432 187/21/433
f 4/25/434 186/17/435 198/5/436 8/27/437
f 193/15/438 200/9/439 197/8/440 181/14/441
f 186/17/442 181/14/443 197/8/444 198/5/445
f 187/21/446 199/1/447 196/2/448 180/20/449
f 14/43/450 204/46/450 207/45/450 17/44/450
f 209/47/451 206/49/451 202/48/451 208/38/451
f 208/38/452 202/48/452 12/50/452 15/37/452
f 212/51/453 209/47/453 208/38/453 211/35/453
f 206/49/454 16/53/454 12/52/454 202/48/454
f 204/46/455 14/43/455 16/53/455 206/49/455
f 210/54/456 207/45/456 209/47/456 212/51/456
f 207/45/457 204/46/457 206/49/457 209/47/457
f 18/55/458 17/44/458 207/45/458 210/54/458
f 182/56/459 9/56/459 11/58/460 201/57/459
f 175/59/461 182/56/461 201/57/461 205/60/461
f 10/56/462 178/56/462 203/62/462 13/61/462
f 178/56/463 175/59/463 205/60/463 203/62/463
f 13/61/464 18/55/464 210/54/464 203/62/464
f 203/62/465 210/54/465 212/51/465 205/60/465
f 205/60/466 212/51/466 211/35/466 201/57/466
f 201/57/467 211/35/467 19/36/467 11/58/467
f 195/12/468 189/13/469 213/33/470 216/63/471
f 190/18/472 188/19/473 184/65/474 214/64/475
f 188/19/476 195/12/477 216/63/478 184/65/479
f 20/56/480 174/67/480 177/66/480 218/56/480
f 5/56/481 20/56/481 218/56/481 217/56/481
f 5/56/482 190/18/483 214/64/484 217/56/482
f 174/67/485 177/66/485 215/34/486 191/16/487
f 217/56/488 214/64/489 222/68/490 225/56/488
f 217/56/491 218/56/491 226/56/491 225/56/491
f 214/64/492 184/65/493 220/69/494 222/68/495
f 216/63/496 213/33/497 221/71/498 224/70/499
f 218/56/500 177/66/500 219/72/500 226/56/500
f 215/34/501 177/66/502 219/72/502 223/73/503
f 184/65/504 216/63/505 224/70/506 220/69/507
f 213/33/508 215/34/509 223/73/510 221/71/511
f 224/70/512 221/71/513 229/13/514 232/74/515
f 222/68/516 220/69/517 250/76/518 244/75/519
f 223/73/520 219/72/521 227/78/521 231/77/522
f 226/56/523 234/56/523 247/56/523 248/56/523
f 220/69/524 224/70/525 232/74/526 228/79/527
f 221/71/528 223/73/529 231/77/530 229/13/531
f 225/56/532 222/68/533 244/75/534 243/56/532
f 226/56/535 219/72/535 227/78/535 234/56/535
f 233/56/536 230/81/537 238/80/538 241/56/536
f 234/56/539 227/78/539 235/82/539 242/56/539
f 232/74/540 229/13/541 237/84/542 240/83/543
f 230/81/544 228/79/545 236/85/546 238/80/547
f 231/77/548 227/78/549 235/82/549 239/86/550
f 233/56/551 234/56/551 242/56/551 241/56/551
f 228/79/552 232/74/553 240/83/554 236/85/555
f 229/13/556 231/77/557 239/86/558 237/84/559
f 301/87/560 299/90/560 251/89/560 252/88/560
f 244/75/561 250/76/562 249/92/563 245/91/564
f 243/56/565 244/75/566 245/91/567 246/56/565
f 246/56/568 245/91/569 230/81/570 233/56/568
f 246/56/571 247/56/571 234/56/571 233/56/571
f 245/91/572 249/92/573 228/79/574 230/81/575
f 225/56/576 226/56/576 248/56/576 243/56/576
f 248/56/577 247/56/577 246/56/577 243/56/577
f 249/92/578 250/76/579 220/69/580 228/79/581
f 263/93/582 264/96/582 258/95/582 257/94/582
f 261/97/583 262/100/583 256/99/583 255/98/583
f 265/101/584 266/103/584 253/50/584 254/102/584
f 268/104/585 261/97/585 255/98/585 265/105/585
f 267/106/586 259/108/586 253/52/586 266/107/586
f 304/109/587 299/110/587 259/108/587 267/106/587
f 303/111/237 300/112/237 261/97/237 268/104/237
f 300/112/588 302/113/588 262/100/588 261/97/588
f 254/114/589 253/117/589 259/116/589 260/115/589
f 301/118/590 303/111/590 268/104/590 260/119/590
f 302/113/591 304/109/591 267/106/591 262/100/591
f 262/100/592 267/106/592 266/107/592 256/99/592
f 260/119/593 268/104/593 265/105/593 254/120/593
f 255/98/594 256/99/594 266/103/594 265/101/594
f 252/88/595 251/89/595 264/96/595 263/93/595
f 176/3/596 269/121/597 270/42/597 196/2/598
f 271/122/599 269/121/600 176/3/601 192/26/602
f 179/7/603 274/123/604 271/122/605 192/26/606
f 197/8/607 273/10/608 274/123/608 179/7/609
f 294/123/610 293/126/610 279/125/610 280/124/610
f 296/127/611 295/130/612 277/129/613 275/128/611
f 295/130/614 294/123/615 280/124/615 277/129/616
f 293/126/617 297/131/618 278/11/619 279/125/617
f 298/132/620 296/127/620 275/128/620 276/133/620
f 297/131/621 298/132/622 276/133/622 278/11/623
f 275/128/624 277/129/625 283/135/626 281/134/624
f 277/129/627 280/124/628 286/136/628 283/135/629
f 279/125/630 278/11/631 284/138/632 285/137/630
f 276/133/633 275/128/633 281/134/633 282/139/633
f 278/11/634 276/133/635 282/139/635 284/138/636
f 280/124/637 279/125/637 285/137/637 286/136/637
f 282/139/638 281/134/638 287/140/638 288/42/638
f 284/138/639 282/139/640 288/42/640 290/11/641
f 286/136/642 285/137/642 291/141/642 292/123/642
f 281/134/643 283/135/644 289/130/645 287/140/643
f 283/135/646 286/136/647 292/123/647 289/130/648
f 285/137/649 284/138/650 290/11/651 291/141/649
f 272/11/652 270/42/653 298/132/653 297/131/654
f 270/42/655 269/121/655 296/127/655 298/132/655
f 273/10/656 272/11/657 297/131/658 293/126/656
f 271/122/659 274/123/660 294/123/660 295/130/661
f 269/121/662 271/122/663 295/130/664 296/127/662
f 274/123/665 273/10/665 293/126/665 294/123/665
f 258/95/666 264/142/666 304/109/666 302/113/666
f 252/143/667 263/39/667 303/111/667 301/118/667
f 257/94/668 258/95/668 302/113/668 300/112/668
f 263/39/237 257/94/237 300/112/237 303/111/237
f 264/142/669 251/144/669 299/110/669 304/109/669
f 260/115/670 259/116/670 299/90/670 301/87/670
f 322/145/671 318/116/671 308/89/671 314/146/671
f 314/146/672 308/89/672 312/147/672 315/21/672
f 321/148/673 320/151/673 310/150/673 316/149/673
f 316/149/674 310/150/674 306/50/674 313/6/674
f 317/119/675 319/97/675 309/98/675 305/120/675
f 320/151/676 312/147/676 292/123/676 289/130/677
f 309/98/678 316/149/678 313/6/678 305/102/678
f 319/97/679 321/148/679 316/149/679 309/98/679
f 307/152/330 314/146/330 315/21/330 311/153/330
f 317/154/680 322/145/680 314/146/680 307/152/680
f 305/114/681 313/155/681 322/145/681 317/154/681
f 311/153/682 315/21/682 321/148/682 319/97/682
f 310/150/683 320/151/683 289/130/684 287/140/683
f 307/156/685 311/153/685 319/97/685 317/119/685
f 315/21/686 312/147/686 320/151/686 321/148/686
f 313/155/687 306/117/687 318/116/687 322/145/687
f 312/147/688 308/89/688 291/141/688 292/123/688
f 308/89/689 318/116/689 290/11/690 291/141/689
f 318/116/691 306/117/691 288/42/691 290/11/692
f 306/50/693 310/150/693 287/140/693 288/42/693
f 178/56/694 10/56/694 170/41/694 324/39/694
f 182/56/695 175/59/695 325/40/696 323/31/695
f 178/56/697 324/39/698 325/40/697 175/59/697
f 182/56/699 323/31/700 169/32/699 9/56/699
f 6/67/701 174/67/701 20/56/701
f 6/67/702 174/67/702 4/25/703
f 326/1/704 327/4/705 328/3/706 329/2/707
f 330/5/708 331/8/709 332/7/710 333/6/711
f 334/9/712 335/11/713 336/10/714 331/8/715
f 337/12/716 338/15/717 339/14/718 340/13/719
f 341/16/720 340/13/721 339/14/722 342/17/723
f 343/18/724 344/21/725 345/20/726 346/19/727
f 347/22/728 348/23/729 344/21/730 343/18/731
f 349/24/732 341/16/733 342/17/734 350/25/735
f 351/26/736 352/6/737 333/6/738 332/7/739
f 353/27/740 330/5/741 333/6/742 354/28/743
f 355/29/744 356/30/745 327/4/746 326/1/747
f 357/31/748 327/4/749 356/30/750 358/32/750
f 359/39/751 333/6/752 352/6/753 360/40/754
f 357/31/755 360/40/756 352/6/757 327/4/758
f 359/39/759 361/41/759 354/28/759 333/6/760
f 328/3/761 327/4/762 352/6/763 351/26/764
f 346/19/765 345/20/766 338/15/767 337/12/768
f 345/20/769 329/2/770 334/9/771 338/15/772
f 348/23/773 355/29/774 326/1/775 344/21/776
f 350/25/777 342/17/778 330/5/779 353/27/780
f 338/15/781 334/9/782 331/8/783 339/14/784
f 342/17/785 339/14/786 331/8/787 330/5/788
f 344/21/789 326/1/790 329/2/791 345/20/792
f 328/3/793 362/121/794 363/42/794 329/2/795
f 364/122/796 362/121/797 328/3/798 351/26/799
f 332/7/800 365/123/801 364/122/802 351/26/803
f 331/8/804 336/10/805 365/123/805 332/7/806
f 366/1/807 367/2/808 368/3/809 369/4/810
f 370/5/811 371/6/812 372/7/813 373/8/814
f 374/9/815 373/8/816 375/10/817 376/11/818
f 377/12/819 378/13/820 379/14/821 380/15/822
f 381/16/823 382/17/824 379/14/825 378/13/826
f 383/18/827 384/19/828 385/20/829 386/21/830
f 347/22/831 383/18/832 386/21/833 348/23/834
f 387/24/835 350/25/836 382/17/837 381/16/838
f 388/26/839 372/7/840 371/6/841 389/6/842
f 353/27/843 354/28/844 371/6/845 370/5/846
f 355/29/847 366/1/848 369/4/849 356/30/850
f 390/31/851 358/32/852 356/30/852 369/4/853
f 391/39/854 392/40/855 389/6/856 371/6/857
f 390/31/858 369/4/859 389/6/860 392/40/861
f 391/39/862 371/6/863 354/28/862 361/41/862
f 368/3/864 388/26/865 389/6/866 369/4/867
f 384/19/868 377/12/869 380/15/870 385/20/871
f 367/2/872 374/9/873 376/11/874 393/42/875
f 385/20/876 380/15/877 374/9/878 367/2/879
f 348/23/880 386/21/881 366/1/882 355/29/883
f 350/25/884 353/27/885 370/5/886 382/17/887
f 380/15/888 379/14/889 373/8/890 374/9/891
f 382/17/892 370/5/893 373/8/894 379/14/895
f 386/21/896 385/20/897 367/2/898 366/1/899
f 368/3/900 367/2/901 393/42/902 394/121/902
f 395/122/903 388/26/904 368/3/905 394/121/906
f 372/7/907 388/26/908 395/122/909 396/123/910
f 373/8/911 372/7/912 396/123/913 375/10/913
f 349/67/914 350/25/915 387/67/914
f 37/16/916 35/13/917 340/13/918 341/16/919
f 46/9/920 118/11/921 335/11/922 334/9/923
f 35/13/924 41/12/925 337/12/926 340/13/927
f 115/121/928 116/42/928 363/42/928 362/121/928
f 42/2/929 46/9/930 334/9/931 329/2/932
f 269/121/933 271/122/934 395/122/935 394/121/933
f 116/42/936 42/2/937 329/2/938 363/42/936
f 174/67/939 6/67/939 349/67/939 387/67/939
f 273/10/940 272/11/941 376/11/942 375/10/940
f 188/19/943 195/12/944 377/12/945 384/19/946
f 325/40/947 323/31/948 390/31/948 392/40/949
f 274/123/950 273/10/950 375/10/950 396/123/950
f 117/122/951 115/121/952 362/121/952 364/122/953
f 324/39/954 325/40/955 392/40/955 391/39/956
f 271/122/957 274/123/958 396/123/958 395/122/959
f 118/11/960 119/10/961 336/10/961 335/11/962
f 323/31/963 169/32/964 358/32/964 390/31/965
f 272/11/966 270/42/967 393/42/967 376/11/968
f 41/12/969 34/19/970 346/19/971 337/12/972
f 172/39/973 170/41/973 361/41/973 359/39/973
f 119/10/974 120/123/974 365/123/974 336/10/974
f 170/41/975 324/39/975 391/39/975 361/41/975
f 171/31/976 173/40/977 360/40/978 357/31/976
f 120/123/979 117/122/980 364/122/981 365/123/979
f 173/40/982 172/39/983 359/39/984 360/40/982
f 191/16/985 174/24/986 387/24/987 381/16/988
f 169/32/989 171/31/990 357/31/991 358/32/989
f 5/22/992 190/18/993 383/18/994 347/22/995
f 190/18/996 188/19/997 384/19/998 383/18/999
f 6/24/1000 37/16/1001 341/16/1002 349/24/1003
f 189/13/1004 191/16/1005 381/16/1006 378/13/1007
f 36/18/1008 5/22/1009 347/22/1010 343/18/1011
f 195/12/1012 189/13/1013 378/13/1014 377/12/1015
f 270/42/1016 269/121/1016 394/121/1016 393/42/1016
f 34/19/1017 36/18/1018 343/18/1019 346/19/1020
